<svg width="178" height="174" viewBox="0 0 178 174" fill="none" xmlns="http://www.w3.org/2000/svg">
<mask id="path-1-inside-1_145_2" fill="white">
<path d="M49.3604 152.313C49.3604 140.629 58.8316 131.158 70.5149 131.158H111.414V170.647H49.3604V152.313Z"/>
</mask>
<path d="M45.1294 152.313C45.1294 138.293 56.4949 126.927 70.5149 126.927H111.414V135.389H70.5149C61.1682 135.389 53.5913 142.966 53.5913 152.313H45.1294ZM111.414 170.647H49.3604H111.414ZM45.1294 170.647V152.313C45.1294 138.293 56.4949 126.927 70.5149 126.927V135.389C61.1682 135.389 53.5913 142.966 53.5913 152.313V170.647H45.1294ZM111.414 131.158V170.647V131.158Z" fill="#EBEBEB" mask="url(#path-1-inside-1_145_2)"/>
<mask id="path-3-inside-2_145_2" fill="white">
<path d="M56.4116 155.133C56.4116 145.787 63.9886 138.21 73.3352 138.21H108.593V170.647H56.4116V155.133Z"/>
</mask>
<path d="M52.1807 155.133C52.1807 143.45 61.6519 133.979 73.3352 133.979H108.593V142.44H73.3352C66.3252 142.44 60.6425 148.123 60.6425 155.133H52.1807ZM108.593 170.647H56.4116H108.593ZM52.1807 170.647V155.133C52.1807 143.45 61.6519 133.979 73.3352 133.979V142.44C66.3252 142.44 60.6425 148.123 60.6425 155.133V170.647H52.1807ZM108.593 138.21V170.647V138.21Z" fill="#EBEBEB" mask="url(#path-3-inside-2_145_2)"/>
<mask id="path-5-inside-3_145_2" fill="white">
<path d="M63.4634 157.954C63.4634 150.944 69.1461 145.261 76.1561 145.261H108.593V170.647H63.4634V157.954Z"/>
</mask>
<path d="M59.2325 157.954C59.2325 148.607 66.8094 141.03 76.1561 141.03H108.593V149.492H76.1561C71.4828 149.492 67.6943 153.28 67.6943 157.954L59.2325 157.954ZM108.593 170.647H63.4634H108.593ZM59.2325 170.647V157.954C59.2325 148.607 66.8094 141.03 76.1561 141.03L76.1561 149.492C71.4828 149.492 67.6943 153.28 67.6943 157.954V170.647H59.2325ZM108.593 145.261V170.647V145.261Z" fill="#EBEBEB" mask="url(#path-5-inside-3_145_2)"/>
<mask id="path-7-inside-4_145_2" fill="white">
<path d="M114.112 162.27C104.833 155.17 103.066 141.893 110.165 132.614L135.016 100.131L166.378 124.126L128.673 173.41L114.112 162.27Z"/>
</mask>
<path d="M111.541 165.63C100.406 157.111 98.2854 141.178 106.804 130.043L131.656 97.5606L138.376 102.702L113.525 135.185C107.846 142.608 109.259 153.23 116.683 158.909L111.541 165.63ZM166.378 124.126L128.673 173.41L166.378 124.126ZM126.102 176.77L111.541 165.63C100.406 157.111 98.2854 141.178 106.804 130.043L113.525 135.185C107.846 142.608 109.259 153.23 116.683 158.909L131.244 170.05L126.102 176.77ZM135.016 100.131L166.378 124.126L135.016 100.131Z" fill="#EBEBEB" mask="url(#path-7-inside-4_145_2)"/>
<mask id="path-9-inside-5_145_2" fill="white">
<path d="M120.637 158.383C113.214 152.704 111.8 142.082 117.479 134.659L138.903 106.656L164.665 126.366L132.958 167.809L120.637 158.383Z"/>
</mask>
<path d="M118.066 161.743C108.787 154.644 107.02 141.367 114.119 132.088L135.542 104.085L142.263 109.227L120.839 137.229C116.58 142.797 117.64 150.763 123.208 155.023L118.066 161.743ZM164.665 126.366L132.958 167.809L164.665 126.366ZM130.387 171.17L118.066 161.743C108.787 154.644 107.02 141.367 114.119 132.088L120.839 137.229C116.58 142.797 117.64 150.763 123.208 155.023L135.529 164.449L130.387 171.17ZM138.903 106.656L164.665 126.366L138.903 106.656Z" fill="#EBEBEB" mask="url(#path-9-inside-5_145_2)"/>
<mask id="path-11-inside-6_145_2" fill="white">
<path d="M127.162 154.496C121.594 150.237 120.534 142.271 124.794 136.703L144.503 110.941L164.665 126.366L137.243 162.209L127.162 154.496Z"/>
</mask>
<path d="M124.591 157.857C117.168 152.177 115.754 141.556 121.433 134.132L141.143 108.37L147.863 113.512L128.154 139.274C125.314 142.986 126.021 148.297 129.733 151.136L124.591 157.857ZM164.665 126.366L137.243 162.209L164.665 126.366ZM134.672 165.569L124.591 157.857C117.168 152.177 115.754 141.556 121.433 134.132L128.154 139.274C125.314 142.986 126.021 148.297 129.733 151.136L139.814 158.849L134.672 165.569ZM144.503 110.941L164.665 126.366L144.503 110.941Z" fill="#EBEBEB" mask="url(#path-11-inside-6_145_2)"/>
<mask id="path-13-inside-7_145_2" fill="white">
<path d="M159.838 116.75C148.443 119.327 137.115 112.178 134.538 100.783L125.517 60.8915L164.033 52.1812L177.72 112.706L159.838 116.75Z"/>
</mask>
<path d="M160.771 120.877C147.097 123.969 133.504 115.391 130.412 101.716L121.39 61.8248L129.644 59.9583L138.665 99.8497C140.727 108.966 149.788 114.685 158.905 112.623L160.771 120.877ZM164.033 52.1812L177.72 112.706L164.033 52.1812ZM178.654 116.833L160.771 120.877C147.097 123.969 133.504 115.391 130.412 101.716L138.665 99.8497C140.727 108.966 149.788 114.685 158.905 112.623L176.787 108.579L178.654 116.833ZM125.517 60.8915L164.033 52.1812L125.517 60.8915Z" fill="#EBEBEB" mask="url(#path-13-inside-7_145_2)"/>
<mask id="path-15-inside-8_145_2" fill="white">
<path d="M161.034 109.25C151.917 111.312 142.856 105.593 140.794 96.4763L133.017 62.0872L164.655 54.9323L176.165 105.828L161.034 109.25Z"/>
</mask>
<path d="M161.967 113.377C150.571 115.954 139.244 108.805 136.667 97.4096L128.89 63.0205L137.143 61.154L144.921 95.5431C146.467 102.38 153.263 106.67 160.1 105.123L161.967 113.377ZM164.655 54.9323L176.165 105.828L164.655 54.9323ZM177.098 109.955L161.967 113.377C150.571 115.954 139.244 108.805 136.667 97.4096L144.921 95.5431C146.467 102.38 153.263 106.67 160.1 105.123L175.232 101.702L177.098 109.955ZM133.017 62.0872L164.655 54.9323L133.017 62.0872Z" fill="#EBEBEB" mask="url(#path-15-inside-8_145_2)"/>
<mask id="path-17-inside-9_145_2" fill="white">
<path d="M162.23 101.75C155.392 103.296 148.596 99.0071 147.05 92.1698L139.895 60.5318L164.655 54.9323L174.61 98.9504L162.23 101.75Z"/>
</mask>
<path d="M163.163 105.877C154.047 107.939 144.985 102.22 142.923 93.1031L135.768 61.4651L144.022 59.5986L151.177 91.2366C152.207 95.7948 156.738 98.6543 161.296 97.6234L163.163 105.877ZM164.655 54.9323L174.61 98.9504L164.655 54.9323ZM175.543 103.077L163.163 105.877C154.047 107.939 144.985 102.22 142.923 93.1031L151.177 91.2366C152.207 95.7948 156.738 98.6543 161.296 97.6234L173.677 94.8237L175.543 103.077ZM139.895 60.5318L164.655 54.9323L139.895 60.5318Z" fill="#EBEBEB" mask="url(#path-17-inside-9_145_2)"/>
<mask id="path-19-inside-10_145_2" fill="white">
<path d="M153.955 51.7845C148.912 62.3234 136.28 66.7787 125.741 61.7357L88.8488 44.0822L105.894 8.4618L161.869 35.2465L153.955 51.7845Z"/>
</mask>
<path d="M157.771 53.6108C151.72 66.2574 136.562 71.6038 123.915 65.5522L87.0226 47.8987L90.675 40.2657L127.568 57.9193C135.999 61.9537 146.104 58.3894 150.138 49.9583L157.771 53.6108ZM105.894 8.4618L161.869 35.2465L105.894 8.4618ZM165.685 37.0727L157.771 53.6108C151.72 66.2574 136.562 71.6038 123.915 65.5522L127.568 57.9193C135.999 61.9537 146.104 58.3894 150.138 49.9583L158.052 33.4203L165.685 37.0727ZM88.8488 44.0822L105.894 8.4618L88.8488 44.0822Z" fill="#EBEBEB" mask="url(#path-19-inside-10_145_2)"/>
<mask id="path-21-inside-11_145_2" fill="white">
<path d="M148.812 46.1965C144.777 54.6276 134.672 58.1919 126.241 54.1575L94.437 38.9389L108.438 9.6793L155.508 32.2028L148.812 46.1965Z"/>
</mask>
<path d="M152.628 48.0227C147.585 58.5616 134.954 63.0169 124.415 57.974L92.6108 42.7554L96.2633 35.1224L128.067 50.341C134.391 53.3668 141.969 50.6936 144.995 44.3703L152.628 48.0227ZM108.438 9.6793L155.508 32.2028L108.438 9.6793ZM159.324 34.029L152.628 48.0227C147.585 58.5616 134.954 63.0169 124.415 57.974L128.067 50.341C134.391 53.3668 141.969 50.6936 144.995 44.3703L151.691 30.3766L159.324 34.029ZM94.437 38.9389L108.438 9.6793L94.437 38.9389Z" fill="#EBEBEB" mask="url(#path-21-inside-11_145_2)"/>
<mask id="path-23-inside-12_145_2" fill="white">
<path d="M143.668 40.6085C140.642 46.9318 133.063 49.605 126.74 46.5792L97.4804 32.5781L108.438 9.67929L149.147 29.1591L143.668 40.6085Z"/>
</mask>
<path d="M147.485 42.4347C143.45 50.8658 133.345 54.4301 124.914 50.3957L95.6542 36.3946L99.3067 28.7616L128.566 42.7627C132.782 44.7799 137.834 42.9978 139.852 38.7822L147.485 42.4347ZM108.438 9.67929L149.147 29.1591L108.438 9.67929ZM152.963 30.9853L147.485 42.4347C143.45 50.8658 133.345 54.4301 124.914 50.3957L128.566 42.7627C132.782 44.7799 137.834 42.9978 139.852 38.7822L145.33 27.3328L152.963 30.9853ZM97.4804 32.5781L108.438 9.67929L97.4804 32.5781Z" fill="#EBEBEB" mask="url(#path-23-inside-12_145_2)"/>
<mask id="path-25-inside-13_145_2" fill="white">
<path d="M99.105 16.5066C104.19 27.0254 99.7843 39.6746 89.2654 44.7592L52.443 62.5585L35.2574 27.0058L91.126 -2.69454e-05L99.105 16.5066Z"/>
</mask>
<path d="M102.914 14.6653C109.016 27.2879 103.729 42.4669 91.1067 48.5684L54.2843 66.3678L50.6017 58.7493L87.4241 40.95C95.8392 36.8823 99.3635 26.763 95.2958 18.3479L102.914 14.6653ZM35.2574 27.0058L91.126 -2.69454e-05L35.2574 27.0058ZM94.9352 -1.84134L102.914 14.6653C109.016 27.2879 103.729 42.4669 91.1067 48.5684L87.4241 40.95C95.8392 36.8823 99.3635 26.763 95.2958 18.3479L87.3168 1.84128L94.9352 -1.84134ZM52.443 62.5585L35.2574 27.0058L52.443 62.5585Z" fill="#EBEBEB" mask="url(#path-25-inside-13_145_2)"/>
<mask id="path-27-inside-14_145_2" fill="white">
<path d="M91.5288 17.036C95.5965 25.451 92.0723 35.5704 83.6572 39.6381L51.9137 54.9823L37.797 25.7783L84.7773 3.06882L91.5288 17.036Z"/>
</mask>
<path d="M95.338 15.1946C100.423 25.7135 96.0173 38.3626 85.4985 43.4473L53.755 58.7915L50.0724 51.1731L81.8159 35.8288C88.1272 32.7781 90.7704 25.1886 87.7196 18.8773L95.338 15.1946ZM37.797 25.7783L84.7773 3.06882L37.797 25.7783ZM88.5866 1.22751L95.338 15.1946C100.423 25.7135 96.0173 38.3626 85.4985 43.4473L81.8159 35.8288C88.1272 32.7781 90.7704 25.1886 87.7196 18.8773L80.9681 4.91013L88.5866 1.22751ZM51.9137 54.9823L37.797 25.7783L51.9137 54.9823Z" fill="#EBEBEB" mask="url(#path-27-inside-14_145_2)"/>
<mask id="path-29-inside-15_145_2" fill="white">
<path d="M83.9526 17.5653C87.0034 23.8766 84.3602 31.4661 78.0489 34.5169L48.8449 48.6336L37.797 25.7783L78.4287 6.13767L83.9526 17.5653Z"/>
</mask>
<path d="M87.7619 15.724C91.8296 24.1391 88.3053 34.2584 79.8902 38.3261L50.6862 52.4428L47.0036 44.8244L76.2076 30.7077C80.4151 28.6738 82.1773 23.6142 80.1434 19.4066L87.7619 15.724ZM37.797 25.7783L78.4287 6.13767L37.797 25.7783ZM82.2379 4.29636L87.7619 15.724C91.8296 24.1391 88.3053 34.2584 79.8902 38.3261L76.2076 30.7077C80.4151 28.6738 82.1773 23.6142 80.1434 19.4066L74.6195 7.97898L82.2379 4.29636ZM48.8449 48.6336L37.797 25.7783L48.8449 48.6336Z" fill="#EBEBEB" mask="url(#path-29-inside-15_145_2)"/>
<mask id="path-31-inside-16_145_2" fill="white">
<path d="M37.1655 36.4667C48.5631 39.0347 55.721 50.356 53.153 61.7536L44.1635 101.652L5.6407 92.9727L19.28 32.4369L37.1655 36.4667Z"/>
</mask>
<path d="M38.0955 32.3393C51.7726 35.4209 60.362 49.0065 57.2804 62.6836L48.2909 102.582L40.036 100.722L49.0255 60.8237C51.0799 51.7056 45.3537 42.6485 36.2356 40.5941L38.0955 32.3393ZM5.6407 92.9727L19.28 32.4369L5.6407 92.9727ZM20.2099 28.3095L38.0955 32.3393C51.7726 35.4209 60.362 49.0065 57.2804 62.6836L49.0255 60.8237C51.0799 51.7056 45.3537 42.6485 36.2356 40.5941L18.35 36.5644L20.2099 28.3095ZM44.1635 101.652L5.6407 92.9727L44.1635 101.652Z" fill="#EBEBEB" mask="url(#path-31-inside-16_145_2)"/>
<mask id="path-33-inside-17_145_2" fill="white">
<path d="M32.8638 42.7258C41.9819 44.7802 47.7081 53.8373 45.6537 62.9553L37.9042 97.3507L6.26045 90.2211L17.7298 39.316L32.8638 42.7258Z"/>
</mask>
<path d="M33.7937 38.5983C45.1913 41.1663 52.3492 52.4877 49.7812 63.8853L42.0316 98.2806L33.7767 96.4207L41.5263 62.0254C43.0671 55.1868 38.7724 48.394 31.9338 46.8532L33.7937 38.5983ZM6.26045 90.2211L17.7298 39.316L6.26045 90.2211ZM18.6598 35.1885L33.7937 38.5983C45.1913 41.1663 52.3492 52.4877 49.7812 63.8853L41.5263 62.0254C43.0671 55.1868 38.7724 48.394 31.9338 46.8532L16.7999 43.4434L18.6598 35.1885ZM37.9042 97.3507L6.26045 90.2211L37.9042 97.3507Z" fill="#EBEBEB" mask="url(#path-33-inside-17_145_2)"/>
<mask id="path-35-inside-18_145_2" fill="white">
<path d="M28.5625 48.9849C35.4011 50.5257 39.6958 57.3185 38.155 64.1571L31.0254 95.8008L6.26072 90.2211L16.1802 46.1951L28.5625 48.9849Z"/>
</mask>
<path d="M29.4925 44.8575C38.6105 46.9118 44.3368 55.9689 42.2824 65.087L35.1528 96.7307L26.8979 94.8708L34.0275 63.2271C35.0547 58.6681 32.1916 54.1395 27.6326 53.1123L29.4925 44.8575ZM6.26072 90.2211L16.1802 46.1951L6.26072 90.2211ZM17.1101 42.0676L29.4925 44.8575C38.6105 46.9118 44.3368 55.9689 42.2824 65.087L34.0275 63.2271C35.0547 58.6681 32.1916 54.1395 27.6326 53.1123L15.2502 50.3225L17.1101 42.0676ZM31.0254 95.8008L6.26072 90.2211L31.0254 95.8008Z" fill="#EBEBEB" mask="url(#path-35-inside-18_145_2)"/>
<mask id="path-37-inside-19_145_2" fill="white">
<path d="M14.2359 97.9483C23.3078 90.5862 36.6302 91.9724 43.9923 101.044L69.764 132.802L39.1018 157.685L-0.000123019 109.501L14.2359 97.9483Z"/>
</mask>
<path d="M11.5699 94.6631C22.4562 85.8286 38.4431 87.4919 47.2775 98.3783L73.0493 130.136L66.4788 135.468L40.7071 103.71C34.8174 96.4528 24.1595 95.3439 16.902 101.234L11.5699 94.6631ZM39.1018 157.685L-0.000123019 109.501L39.1018 157.685ZM-2.66616 106.216L11.5699 94.6631C22.4562 85.8286 38.4431 87.4919 47.2775 98.3783L40.7071 103.71C34.8174 96.4528 24.1595 95.3439 16.902 101.234L2.66592 112.786L-2.66616 106.216ZM69.764 132.802L39.1018 157.685L69.764 132.802Z" fill="#EBEBEB" mask="url(#path-37-inside-19_145_2)"/>
<mask id="path-39-inside-20_145_2" fill="white">
<path d="M16.4894 105.201C23.747 99.3114 34.4049 100.42 40.2945 107.678L62.5115 135.055L37.3247 155.494L4.44354 114.976L16.4894 105.201Z"/>
</mask>
<path d="M13.8234 101.916C22.8953 94.5537 36.2177 95.9398 43.5798 105.012L65.7968 132.389L59.2263 137.721L37.0093 110.344C32.5921 104.901 24.5986 104.069 19.1555 108.486L13.8234 101.916ZM37.3247 155.494L4.44354 114.976L37.3247 155.494ZM1.7775 111.691L13.8234 101.916C22.8953 94.5537 36.2177 95.9398 43.5798 105.012L37.0093 110.344C32.5921 104.901 24.5986 104.069 19.1555 108.486L7.10958 118.262L1.7775 111.691ZM62.5115 135.055L37.3247 155.494L62.5115 135.055Z" fill="#EBEBEB" mask="url(#path-39-inside-20_145_2)"/>
<mask id="path-41-inside-21_145_2" fill="white">
<path d="M18.7424 112.454C24.1856 108.037 32.179 108.868 36.5963 114.311L57.0359 139.498L37.3245 155.495L8.88671 120.452L18.7424 112.454Z"/>
</mask>
<path d="M16.0764 109.169C23.3339 103.279 33.9918 104.388 39.8815 111.645L60.3211 136.832L53.7507 142.164L33.311 116.977C30.3662 113.349 25.0372 112.794 21.4085 115.739L16.0764 109.169ZM37.3245 155.495L8.88671 120.452L37.3245 155.495ZM6.22067 117.167L16.0764 109.169C23.3339 103.279 33.9918 104.388 39.8815 111.645L33.311 116.977C30.3662 113.349 25.0372 112.794 21.4085 115.739L11.5527 123.737L6.22067 117.167ZM57.0359 139.498L37.3245 155.495L57.0359 139.498Z" fill="#EBEBEB" mask="url(#path-41-inside-21_145_2)"/>
</svg>
